<?xml version="1.0" encoding="UTF-8"?>
<!DOCTYPE svg PUBLIC "-//W3C//DTD SVG 1.1//EN" "http://www.w3.org/Graphics/SVG/1.1/DTD/svg11.dtd">
<svg xmlns="http://www.w3.org/2000/svg" version="1.1" width="90px" height="90px" style="shape-rendering:geometricPrecision; text-rendering:geometricPrecision; image-rendering:optimizeQuality; fill-rule:evenodd; clip-rule:evenodd" xmlns:xlink="http://www.w3.org/1999/xlink">
<g><path style="opacity:0.867" fill="#93825a" d="M 31.5,11.5 C 31.8333,12.1667 32.1667,12.8333 32.5,13.5C 27.7112,12.2366 23.0446,10.57 18.5,8.5C 17.8333,8.83333 17.1667,9.16667 16.5,9.5C 17.5134,12.1878 18.5134,14.8544 19.5,17.5C 16.0727,14.6256 14.9061,10.9589 16,6.5C 16.414,6.04265 16.914,5.70931 17.5,5.5C 22.2779,7.31237 26.9445,9.31237 31.5,11.5 Z"/></g>
<g><path style="opacity:1" fill="#f8d54d" d="M 32.5,13.5 C 38.2134,15.6292 43.8801,17.9625 49.5,20.5C 50.4916,20.3284 51.1583,20.6618 51.5,21.5C 53.0326,23.2451 55.0326,24.2451 57.5,24.5C 58.5063,25.3957 58.5063,26.0623 57.5,26.5C 54.9455,25.612 52.2788,25.2786 49.5,25.5C 49.0831,24.8761 48.4164,24.5427 47.5,24.5C 44.5252,25.1393 41.5252,25.6393 38.5,26C 36.1484,26.2401 34.1484,27.0735 32.5,28.5C 30.323,28.5861 28.323,29.2528 26.5,30.5C 25.0295,29.6195 24.1962,28.2861 24,26.5C 23.6012,26.7284 23.4346,27.0618 23.5,27.5C 21.9914,24.3223 20.658,20.9889 19.5,17.5C 18.5134,14.8544 17.5134,12.1878 16.5,9.5C 17.1667,9.16667 17.8333,8.83333 18.5,8.5C 23.0446,10.57 27.7112,12.2366 32.5,13.5 Z"/></g>
<g><path style="opacity:1" fill="#483821" d="M 31.5,11.5 C 38.0969,13.4651 44.0969,16.4651 49.5,20.5C 43.8801,17.9625 38.2134,15.6292 32.5,13.5C 32.1667,12.8333 31.8333,12.1667 31.5,11.5 Z"/></g>
<g><path style="opacity:1" fill="#574025" d="M 51.5,21.5 C 53.9674,21.7549 55.9674,22.7549 57.5,24.5C 55.0326,24.2451 53.0326,23.2451 51.5,21.5 Z"/></g>
<g><path style="opacity:1" fill="#73523b" d="M 49.5,25.5 C 48.391,25.5569 47.391,25.8902 46.5,26.5C 41.7986,26.9569 37.132,27.6236 32.5,28.5C 34.1484,27.0735 36.1484,26.2401 38.5,26C 41.5252,25.6393 44.5252,25.1393 47.5,24.5C 48.4164,24.5427 49.0831,24.8761 49.5,25.5 Z"/></g>
<g><path style="opacity:1" fill="#dbceb9" d="M 49.5,25.5 C 52.2788,25.2786 54.9455,25.612 57.5,26.5C 65.3204,31.5299 67.487,38.5299 64,47.5C 63.34,49.3237 62.1733,50.657 60.5,51.5C 60.5,50.8333 60.1667,50.5 59.5,50.5C 59.7086,49.0783 60.2086,47.745 61,46.5C 61.6543,47.6956 62.1543,47.6956 62.5,46.5C 59.8403,39.3359 54.8403,36.3359 47.5,37.5C 46.8826,37.3893 46.3826,37.056 46,36.5C 45.2534,33.0764 45.42,29.7431 46.5,26.5C 47.391,25.8902 48.391,25.5569 49.5,25.5 Z"/></g>
<g><path style="opacity:1" fill="#452a1e" d="M 32.5,28.5 C 32.0472,29.4584 31.3805,30.2917 30.5,31C 32.6797,31.4188 34.8463,31.2521 37,30.5C 38.4038,30.5093 39.5704,31.0093 40.5,32C 38.2199,32.2326 36.2199,33.066 34.5,34.5C 35.0253,35.1924 35.6919,35.6924 36.5,36C 35.1667,36.3333 33.8333,36.6667 32.5,37C 32.8333,37.3333 33.1667,37.6667 33.5,38C 32.8095,39.0674 32.3095,40.2341 32,41.5C 30.7035,39.2183 30.2035,36.8849 30.5,34.5C 30.0248,37.1547 28.6915,39.1547 26.5,40.5C 28.123,37.7847 28.7896,34.7847 28.5,31.5C 25.0504,32.2436 23.3838,30.9103 23.5,27.5C 23.4346,27.0618 23.6012,26.7284 24,26.5C 24.1962,28.2861 25.0295,29.6195 26.5,30.5C 28.323,29.2528 30.323,28.5861 32.5,28.5 Z"/></g>
<g><path style="opacity:1" fill="#8e695a" d="M 59.5,50.5 C 58.8333,50.8333 58.1667,51.1667 57.5,51.5C 57.1667,50.1667 56.8333,48.8333 56.5,47.5C 55.8597,44.3178 54.8597,43.9845 53.5,46.5C 52.3754,44.623 52.7088,42.7897 54.5,41C 53.5,40.3333 52.5,40.3333 51.5,41C 49.3459,43.4557 48.0126,46.2891 47.5,49.5C 46.596,48.791 46.2627,47.791 46.5,46.5C 46.7038,43.4824 47.0371,40.4824 47.5,37.5C 54.8403,36.3359 59.8403,39.3359 62.5,46.5C 62.1543,47.6956 61.6543,47.6956 61,46.5C 60.2086,47.745 59.7086,49.0783 59.5,50.5 Z"/></g>
<g><path style="opacity:0.475" fill="#7a170a" d="M 26.5,40.5 C 24.6396,44.0825 22.9729,47.7492 21.5,51.5C 20.596,50.791 20.2627,49.791 20.5,48.5C 22.0252,45.437 24.0252,42.7703 26.5,40.5 Z"/></g>
<g><path style="opacity:1" fill="#2d1e18" d="M 56.5,47.5 C 52.2555,51.8764 51.2555,51.543 53.5,46.5C 54.8597,43.9845 55.8597,44.3178 56.5,47.5 Z"/></g>
<g><path style="opacity:1" fill="#e09c82" d="M 46.5,26.5 C 45.42,29.7431 45.2534,33.0764 46,36.5C 46.3826,37.056 46.8826,37.3893 47.5,37.5C 47.0371,40.4824 46.7038,43.4824 46.5,46.5C 45.0665,47.8333 43.7332,49.3333 42.5,51C 41.2161,51.6838 40.0495,51.5171 39,50.5C 38.3005,52.032 37.1338,53.032 35.5,53.5C 34.0419,56.3723 32.8752,59.3723 32,62.5C 31.0471,64.3731 29.8804,64.7065 28.5,63.5C 27.9935,62.1411 26.9935,61.1411 25.5,60.5C 26.9023,59.1575 26.5689,58.3242 24.5,58C 27.1249,56.6657 29.7916,56.1657 32.5,56.5C 30.3333,55.0521 28,53.8854 25.5,53C 26.1667,52.6667 26.8333,52.3333 27.5,52C 25.2755,51.9605 23.2755,51.7938 21.5,51.5C 22.9729,47.7492 24.6396,44.0825 26.5,40.5C 28.6915,39.1547 30.0248,37.1547 30.5,34.5C 30.2035,36.8849 30.7035,39.2183 32,41.5C 32.3095,40.2341 32.8095,39.0674 33.5,38C 33.1667,37.6667 32.8333,37.3333 32.5,37C 33.8333,36.6667 35.1667,36.3333 36.5,36C 35.6919,35.6924 35.0253,35.1924 34.5,34.5C 36.2199,33.066 38.2199,32.2326 40.5,32C 39.5704,31.0093 38.4038,30.5093 37,30.5C 34.8463,31.2521 32.6797,31.4188 30.5,31C 31.3805,30.2917 32.0472,29.4584 32.5,28.5C 37.132,27.6236 41.7986,26.9569 46.5,26.5 Z"/></g>
<g><path style="opacity:0.482" fill="#5d3424" d="M 57.5,24.5 C 61.8843,26.3935 64.7176,29.7269 66,34.5C 64.8377,46.8996 65.3377,59.233 67.5,71.5C 66.207,70.158 65.3736,68.4913 65,66.5C 64.6459,62.6458 64.1459,58.8125 63.5,55C 62.5923,53.4022 61.5923,52.2355 60.5,51.5C 62.1733,50.657 63.34,49.3237 64,47.5C 67.487,38.5299 65.3204,31.5299 57.5,26.5C 58.5063,26.0623 58.5063,25.3957 57.5,24.5 Z"/></g>
<g><path style="opacity:1" fill="#e4ac91" d="M 53.5,46.5 C 51.2555,51.543 52.2555,51.8764 56.5,47.5C 56.8333,48.8333 57.1667,50.1667 57.5,51.5C 55.9826,51.5106 54.8159,52.1772 54,53.5C 53.586,53.0426 53.086,52.7093 52.5,52.5C 52.0024,53.6034 51.6691,54.6034 51.5,55.5C 50.5832,54.8728 49.5832,54.5394 48.5,54.5C 47.5489,53.0813 47.2155,51.4147 47.5,49.5C 48.0126,46.2891 49.3459,43.4557 51.5,41C 52.5,40.3333 53.5,40.3333 54.5,41C 52.7088,42.7897 52.3754,44.623 53.5,46.5 Z"/></g>
<g><path style="opacity:0.055" fill="#432c26" d="M 20.5,48.5 C 20.2627,49.791 20.596,50.791 21.5,51.5C 23.2755,51.7938 25.2755,51.9605 27.5,52C 26.8333,52.3333 26.1667,52.6667 25.5,53C 28,53.8854 30.3333,55.0521 32.5,56.5C 29.7916,56.1657 27.1249,56.6657 24.5,58C 26.5689,58.3242 26.9023,59.1575 25.5,60.5C 26.9935,61.1411 27.9935,62.1411 28.5,63.5C 27.1667,64.5 25.8333,65.5 24.5,66.5C 24.5,65.8333 24.5,65.1667 24.5,64.5C 25.0408,58.6789 23.0408,54.1789 18.5,51C 19.0659,50.0053 19.7326,49.172 20.5,48.5 Z"/></g>
<g><path style="opacity:1" fill="#654639" d="M 57.5,51.5 C 55.331,55.0137 52.331,57.347 48.5,58.5C 48.5,57.1667 48.5,55.8333 48.5,54.5C 49.5832,54.5394 50.5832,54.8728 51.5,55.5C 51.6691,54.6034 52.0024,53.6034 52.5,52.5C 53.086,52.7093 53.586,53.0426 54,53.5C 54.8159,52.1772 55.9826,51.5106 57.5,51.5 Z"/></g>
<g><path style="opacity:1" fill="#e2b092" d="M 59.5,50.5 C 60.1667,50.5 60.5,50.8333 60.5,51.5C 61.5923,52.2355 62.5923,53.4022 63.5,55C 64.1459,58.8125 64.6459,62.6458 65,66.5C 65.3736,68.4913 66.207,70.158 67.5,71.5C 67.8333,72.1667 68.1667,72.8333 68.5,73.5C 68.1667,74.1667 67.8333,74.8333 67.5,75.5C 62.09,78.0253 56.4233,79.8586 50.5,81C 48,82.8333 45.5,84.6667 43,86.5C 42.5172,87.448 42.3505,88.448 42.5,89.5C 41.1667,89.5 39.8333,89.5 38.5,89.5C 38.5,88.1667 38.5,86.8333 38.5,85.5C 40.1477,84.1902 41.8144,82.8569 43.5,81.5C 44.6808,79.8647 44.6808,78.198 43.5,76.5C 44.1667,76.1667 44.8333,75.8333 45.5,75.5C 45.02,73.0514 44.02,70.8847 42.5,69C 44.2588,68.2025 45.9255,68.3691 47.5,69.5C 48.2435,72.443 48.7435,75.443 49,78.5C 49.4988,74.5138 49.6655,70.5138 49.5,66.5C 48.1667,66.5 46.8333,66.5 45.5,66.5C 47.4279,64.2192 48.4279,61.5525 48.5,58.5C 52.331,57.347 55.331,55.0137 57.5,51.5C 58.1667,51.1667 58.8333,50.8333 59.5,50.5 Z"/></g>
<g><path style="opacity:1" fill="#ddcdb6" d="M 46.5,46.5 C 46.2627,47.791 46.596,48.791 47.5,49.5C 47.2155,51.4147 47.5489,53.0813 48.5,54.5C 48.5,55.8333 48.5,57.1667 48.5,58.5C 48.4279,61.5525 47.4279,64.2192 45.5,66.5C 43.5,67.1667 41.5,67.8333 39.5,68.5C 37.2496,70.9687 34.583,72.9687 31.5,74.5C 29.6769,73.5091 28.1769,72.1757 27,70.5C 26.6667,71.1667 26.3333,71.8333 26,72.5C 22.6405,70.7984 22.1405,68.7984 24.5,66.5C 25.8333,65.5 27.1667,64.5 28.5,63.5C 29.8804,64.7065 31.0471,64.3731 32,62.5C 32.8752,59.3723 34.0419,56.3723 35.5,53.5C 37.1338,53.032 38.3005,52.032 39,50.5C 40.0495,51.5171 41.2161,51.6838 42.5,51C 43.7332,49.3333 45.0665,47.8333 46.5,46.5 Z"/></g>
<g><path style="opacity:1" fill="#9a8b79" d="M 24.5,64.5 C 24.5,65.1667 24.5,65.8333 24.5,66.5C 22.1405,68.7984 22.6405,70.7984 26,72.5C 26.3333,71.8333 26.6667,71.1667 27,70.5C 28.1769,72.1757 29.6769,73.5091 31.5,74.5C 34.583,72.9687 37.2496,70.9687 39.5,68.5C 40.1667,69.1667 40.8333,69.8333 41.5,70.5C 39.1452,72.3383 36.4785,73.8383 33.5,75C 31.141,75.2078 28.9743,75.3744 27,75.5C 19.594,73.1391 18.7606,69.4724 24.5,64.5 Z"/></g>
<g><path style="opacity:0.749" fill="#a04757" d="M 88.5,77.5 C 88.1667,77.5 87.8333,77.5 87.5,77.5C 86.3172,76.4955 84.9839,75.6622 83.5,75C 78.1149,74.2665 72.7815,74.4332 67.5,75.5C 67.8333,74.8333 68.1667,74.1667 68.5,73.5C 72.5705,73.7662 76.5705,73.4328 80.5,72.5C 84.1351,72.7261 86.8018,74.3927 88.5,77.5 Z"/></g>
<g><path style="opacity:1" fill="#482c21" d="M 45.5,66.5 C 46.8333,66.5 48.1667,66.5 49.5,66.5C 49.6655,70.5138 49.4988,74.5138 49,78.5C 48.7435,75.443 48.2435,72.443 47.5,69.5C 45.9255,68.3691 44.2588,68.2025 42.5,69C 44.02,70.8847 45.02,73.0514 45.5,75.5C 44.8333,75.8333 44.1667,76.1667 43.5,76.5C 44.6808,78.198 44.6808,79.8647 43.5,81.5C 41.8144,82.8569 40.1477,84.1902 38.5,85.5C 38.6878,82.7939 39.6878,80.4605 41.5,78.5C 42.404,77.791 42.7373,76.791 42.5,75.5C 42.634,73.7085 42.3007,72.0418 41.5,70.5C 40.8333,69.8333 40.1667,69.1667 39.5,68.5C 41.5,67.8333 43.5,67.1667 45.5,66.5 Z"/></g>
<g><path style="opacity:1" fill="#e10428" d="M 87.5,77.5 C 87.6107,78.1174 87.944,78.6174 88.5,79C 84.7487,79.7492 81.082,80.7492 77.5,82C 74.3098,84.3644 71.3098,86.8644 68.5,89.5C 59.8333,89.5 51.1667,89.5 42.5,89.5C 42.3505,88.448 42.5172,87.448 43,86.5C 45.5,84.6667 48,82.8333 50.5,81C 56.4233,79.8586 62.09,78.0253 67.5,75.5C 72.7815,74.4332 78.1149,74.2665 83.5,75C 84.9839,75.6622 86.3172,76.4955 87.5,77.5 Z"/></g>
<g><path style="opacity:1" fill="#5f0e14" d="M 42.5,75.5 C 42.7373,76.791 42.404,77.791 41.5,78.5C 41.5654,78.0618 41.3988,77.7284 41,77.5C 36.5417,78.9794 32.0417,80.3128 27.5,81.5C 32.1046,78.7042 37.1046,76.7042 42.5,75.5 Z"/></g>
<g><path style="opacity:1" fill="#dc162c" d="M 41.5,78.5 C 39.6878,80.4605 38.6878,82.7939 38.5,85.5C 38.5,86.8333 38.5,88.1667 38.5,89.5C 36.5,89.5 34.5,89.5 32.5,89.5C 32.1077,87.8211 31.6077,86.1545 31,84.5C 30.3603,86.265 30.5269,87.9317 31.5,89.5C 28.1667,89.5 24.8333,89.5 21.5,89.5C 24.9475,87.9459 26.9475,85.2792 27.5,81.5C 32.0417,80.3128 36.5417,78.9794 41,77.5C 41.3988,77.7284 41.5654,78.0618 41.5,78.5 Z"/></g>
<g><path style="opacity:1" fill="#e2b495" d="M 87.5,77.5 C 87.8333,77.5 88.1667,77.5 88.5,77.5C 88.8333,77.5 89.1667,77.5 89.5,77.5C 89.5,81.5 89.5,85.5 89.5,89.5C 82.5,89.5 75.5,89.5 68.5,89.5C 71.3098,86.8644 74.3098,84.3644 77.5,82C 81.082,80.7492 84.7487,79.7492 88.5,79C 87.944,78.6174 87.6107,78.1174 87.5,77.5 Z"/></g>
<g><path style="opacity:1" fill="#38110f" d="M 32.5,89.5 C 32.1667,89.5 31.8333,89.5 31.5,89.5C 30.5269,87.9317 30.3603,86.265 31,84.5C 31.6077,86.1545 32.1077,87.8211 32.5,89.5 Z"/></g>
</svg>
